<?xml version="1.0" encoding="utf-8"?>
<!-- Generator: Adobe Illustrator 16.0.0, SVG Export Plug-In . SVG Version: 6.00 Build 0)  -->
<!DOCTYPE svg PUBLIC "-//W3C//DTD SVG 1.1//EN" "http://www.w3.org/Graphics/SVG/1.1/DTD/svg11.dtd">
<svg version="1.1" id="Слой_1" xmlns="http://www.w3.org/2000/svg" xmlns:xlink="http://www.w3.org/1999/xlink" x="0px" y="0px"
	 width="150.203px" height="24.75px" viewBox="0 0 150.203 24.75" enable-background="new 0 0 150.203 24.75" xml:space="preserve">
<g>
	<path d="M9.862,6.279c0-0.512-0.104-0.948-0.312-1.308c-0.208-0.36-0.528-0.54-0.96-0.54c-0.48,0-0.832,0.156-1.056,0.468
		s-0.336,0.66-0.336,1.044c0,0.56,0.18,1.004,0.54,1.332c0.36,0.328,0.812,0.612,1.356,0.852c0.544,0.24,1.128,0.484,1.752,0.732
		s1.208,0.572,1.752,0.972s0.996,0.924,1.356,1.572c0.36,0.648,0.54,1.492,0.54,2.532c0,1.824-0.52,3.148-1.56,3.972
		c-1.04,0.824-2.544,1.236-4.512,1.236c-0.928,0-1.749-0.076-2.46-0.228c-0.712-0.152-1.312-0.416-1.8-0.792
		s-0.86-0.868-1.116-1.476c-0.256-0.608-0.384-1.36-0.384-2.256v-0.6h4.32v0.408c0,0.736,0.136,1.252,0.408,1.548
		s0.624,0.444,1.056,0.444c0.464,0,0.82-0.16,1.068-0.48c0.248-0.32,0.372-0.712,0.372-1.176c0-0.56-0.172-1.003-0.516-1.332
		s-0.776-0.608-1.296-0.84c-0.52-0.231-1.084-0.468-1.692-0.708c-0.608-0.24-1.172-0.552-1.692-0.936
		C4.17,10.335,3.738,9.831,3.394,9.207s-0.516-1.44-0.516-2.448c0-1.744,0.464-3.072,1.392-3.984
		c0.928-0.912,2.335-1.368,4.224-1.368c1.952,0,3.364,0.42,4.236,1.26c0.872,0.84,1.308,2.18,1.308,4.02H9.862V6.279z"/>
	<path d="M22.27,9.699c-0.048-0.328-0.12-0.596-0.216-0.804c-0.176-0.368-0.497-0.552-0.96-0.552c-0.24,0-0.444,0.06-0.612,0.18
		s-0.3,0.336-0.396,0.648s-0.164,0.728-0.204,1.248s-0.06,1.18-0.06,1.98c0,0.8,0.02,1.46,0.06,1.98
		c0.04,0.52,0.108,0.932,0.204,1.236c0.096,0.304,0.228,0.516,0.396,0.636s0.372,0.18,0.612,0.18c0.4,0,0.708-0.152,0.924-0.456
		c0.216-0.304,0.324-0.864,0.324-1.68v-0.84h3.888c0,1.024-0.088,1.896-0.264,2.616c-0.176,0.72-0.472,1.312-0.888,1.776
		c-0.816,0.864-2.145,1.296-3.984,1.296c-0.832,0-1.592-0.072-2.28-0.216s-1.276-0.452-1.764-0.924
		c-0.488-0.472-0.868-1.136-1.14-1.992c-0.272-0.855-0.408-1.988-0.408-3.396c0-1.536,0.152-2.768,0.456-3.696
		c0.304-0.928,0.716-1.64,1.236-2.136c0.52-0.496,1.132-0.824,1.836-0.984c0.704-0.16,1.464-0.24,2.28-0.24
		c0.96,0,1.756,0.132,2.388,0.396c0.632,0.264,1.136,0.632,1.512,1.104s0.64,1.04,0.792,1.704c0.152,0.665,0.228,1.404,0.228,2.22
		h-3.888C22.342,10.455,22.318,10.027,22.27,9.699z"/>
	<path d="M33.573,18.183c-0.032-0.24-0.064-0.496-0.096-0.768h-0.048c-0.24,0.576-0.62,1.008-1.14,1.296
		c-0.52,0.288-1.116,0.432-1.788,0.432c-0.656,0-1.212-0.084-1.668-0.252s-0.828-0.42-1.116-0.756s-0.496-0.736-0.624-1.2
		s-0.192-0.976-0.192-1.536c0-0.608,0.06-1.136,0.18-1.584c0.12-0.448,0.315-0.836,0.588-1.164c0.272-0.328,0.64-0.608,1.104-0.84
		c0.464-0.232,1.04-0.428,1.728-0.588l1.704-0.408c0.464-0.112,0.792-0.276,0.984-0.492c0.192-0.216,0.288-0.524,0.288-0.924
		c0-0.8-0.368-1.2-1.104-1.2c-0.417,0-0.72,0.116-0.912,0.348s-0.296,0.692-0.312,1.38h-3.744c0-0.944,0.168-1.7,0.504-2.268
		c0.336-0.567,0.751-1.008,1.248-1.32s1.032-0.52,1.608-0.624c0.576-0.104,1.112-0.156,1.608-0.156c0.752,0,1.444,0.06,2.076,0.18
		c0.632,0.12,1.176,0.336,1.632,0.648s0.808,0.736,1.056,1.272c0.248,0.537,0.372,1.229,0.372,2.076v6.336
		c0,0.608,0.024,1.144,0.072,1.608c0.048,0.464,0.16,0.864,0.336,1.2h-4.176C33.661,18.655,33.605,18.423,33.573,18.183z
		 M33.166,15.783c0.208-0.352,0.312-0.888,0.312-1.608v-1.56h-0.048c-0.128,0.176-0.324,0.284-0.588,0.324
		c-0.264,0.04-0.556,0.132-0.876,0.276c-0.336,0.16-0.568,0.372-0.696,0.636c-0.128,0.264-0.192,0.612-0.192,1.044
		s0.096,0.776,0.288,1.032c0.192,0.256,0.448,0.384,0.768,0.384C32.613,16.311,32.958,16.135,33.166,15.783z"/>
	<path d="M43.821,1.743v17.136h-4.32V1.743H43.821z"/>
	<path d="M49.558,14.823c0,0.705,0.12,1.172,0.36,1.404c0.24,0.232,0.512,0.348,0.816,0.348c0.384,0,0.684-0.156,0.9-0.468
		s0.324-0.908,0.324-1.788h3.888c-0.032,1.6-0.44,2.804-1.224,3.612c-0.784,0.809-2.072,1.212-3.864,1.212
		c-1.04,0-1.912-0.116-2.616-0.348s-1.272-0.616-1.704-1.152c-0.432-0.536-0.74-1.236-0.924-2.1
		c-0.184-0.864-0.276-1.912-0.276-3.144c0-1.248,0.104-2.304,0.312-3.168c0.208-0.864,0.536-1.568,0.984-2.112
		c0.448-0.544,1.02-0.94,1.716-1.188c0.696-0.248,1.532-0.372,2.508-0.372c0.864,0,1.62,0.104,2.268,0.312s1.192,0.556,1.632,1.044
		c0.44,0.488,0.768,1.128,0.984,1.92c0.216,0.792,0.324,1.78,0.324,2.964v1.32h-6.408V14.823z M51.682,8.679
		c-0.168-0.32-0.484-0.48-0.948-0.48c-0.448,0-0.756,0.16-0.924,0.48c-0.168,0.32-0.252,0.824-0.252,1.512v0.576h2.376v-0.576
		C51.934,9.503,51.85,8.999,51.682,8.679z"/>
	<path d="M61.413,5.895v1.776h0.048c0.496-1.408,1.479-2.112,2.952-2.112c1.44,0,2.448,0.584,3.024,1.752
		c0.576,1.168,0.864,2.952,0.864,5.352c0,1.248-0.096,2.288-0.288,3.12c-0.192,0.833-0.46,1.5-0.804,2.004
		c-0.344,0.504-0.76,0.856-1.248,1.056c-0.488,0.2-1.036,0.3-1.644,0.3c-0.608,0-1.156-0.12-1.644-0.36
		c-0.488-0.24-0.844-0.696-1.068-1.368h-0.048v5.616h-4.32V5.895H61.413z M61.605,14.127c0.032,0.464,0.092,0.836,0.18,1.116
		c0.088,0.28,0.212,0.477,0.372,0.588c0.16,0.112,0.36,0.168,0.6,0.168c0.256,0,0.464-0.056,0.624-0.168
		c0.16-0.112,0.284-0.308,0.372-0.588c0.087-0.279,0.147-0.651,0.18-1.116c0.032-0.464,0.048-1.048,0.048-1.752
		s-0.016-1.284-0.048-1.74s-0.092-0.824-0.18-1.104c-0.088-0.28-0.212-0.476-0.372-0.588c-0.16-0.112-0.368-0.168-0.624-0.168
		c-0.24,0-0.44,0.056-0.6,0.168c-0.16,0.112-0.284,0.308-0.372,0.588c-0.088,0.28-0.148,0.648-0.18,1.104
		c-0.032,0.456-0.048,1.036-0.048,1.74S61.573,13.663,61.605,14.127z"/>
	<path d="M74.037,1.743v3.216h-4.32V1.743H74.037z M74.037,5.895v12.984h-4.32V5.895H74.037z"/>
	<path d="M79.341,5.895l1.296,3.48l1.488-3.48h4.32l-3.264,6.288l3.432,6.696h-4.32l-1.512-3.912l-1.584,3.912h-4.248l3.36-6.696
		l-3.288-6.288H79.341z"/>
	<path d="M91.653,14.127v4.752h-4.032v-4.752H91.653z"/>
	<path d="M100.34,1.743c0.848,0,1.584,0.136,2.208,0.408c0.624,0.272,1.14,0.644,1.548,1.116c0.408,0.472,0.708,1.028,0.9,1.668
		c0.192,0.64,0.288,1.336,0.288,2.088c0,1.776-0.476,3.108-1.428,3.996c-0.952,0.888-2.348,1.332-4.188,1.332h-1.56v6.528h-4.464
		V1.743H100.34z M98.948,9.135c0.56,0,0.988-0.168,1.284-0.504c0.296-0.336,0.444-0.864,0.444-1.584
		c0-1.392-0.576-2.088-1.728-2.088h-0.84v4.176H98.948z"/>
	<path d="M110.828,1.743v5.592h0.048c0.368-0.688,0.828-1.156,1.38-1.404c0.552-0.248,1.092-0.372,1.62-0.372
		c0.448,0,0.876,0.056,1.284,0.168c0.408,0.112,0.768,0.304,1.08,0.576c0.312,0.272,0.56,0.636,0.744,1.092s0.276,1.02,0.276,1.692
		v9.792h-4.32v-8.568c0-0.544-0.08-0.936-0.24-1.176c-0.16-0.24-0.432-0.36-0.816-0.36c-0.384,0-0.656,0.12-0.816,0.36
		c-0.16,0.24-0.24,0.632-0.24,1.176v8.568h-4.32V1.743H110.828z"/>
	<path d="M129.464,14.895c-0.12,0.816-0.372,1.54-0.756,2.172c-0.384,0.632-0.94,1.136-1.668,1.512
		c-0.728,0.375-1.7,0.564-2.916,0.564c-1.264,0-2.264-0.172-3-0.516c-0.736-0.344-1.288-0.824-1.656-1.44
		c-0.369-0.616-0.604-1.336-0.708-2.16c-0.104-0.824-0.156-1.708-0.156-2.652c0-0.848,0.06-1.68,0.18-2.496
		c0.12-0.816,0.372-1.544,0.756-2.184c0.384-0.64,0.94-1.156,1.668-1.548s1.7-0.588,2.916-0.588c1.264,0,2.264,0.18,3,0.54
		c0.736,0.36,1.288,0.852,1.656,1.476s0.604,1.348,0.708,2.172s0.156,1.708,0.156,2.652
		C129.644,13.247,129.584,14.079,129.464,14.895z M122.972,14.403c0.032,0.52,0.096,0.932,0.192,1.236
		c0.096,0.304,0.22,0.513,0.372,0.624c0.152,0.112,0.348,0.168,0.588,0.168s0.44-0.056,0.6-0.168c0.16-0.111,0.284-0.32,0.372-0.624
		c0.087-0.304,0.147-0.716,0.18-1.236c0.032-0.52,0.048-1.188,0.048-2.004s-0.016-1.488-0.048-2.016
		c-0.032-0.528-0.092-0.944-0.18-1.248c-0.088-0.304-0.212-0.512-0.372-0.624c-0.16-0.112-0.36-0.168-0.6-0.168
		s-0.436,0.056-0.588,0.168c-0.152,0.112-0.276,0.32-0.372,0.624c-0.096,0.304-0.16,0.72-0.192,1.248
		c-0.032,0.528-0.048,1.2-0.048,2.016S122.94,13.883,122.972,14.403z"/>
	<path d="M131.612,5.895V2.079h4.32v3.816h1.705v2.904h-1.705v6.192c0,0.369,0.084,0.628,0.252,0.78
		c0.168,0.152,0.428,0.228,0.78,0.228h0.673v2.88c-0.4,0-0.801,0.012-1.201,0.036c-0.399,0.024-0.783,0.036-1.151,0.036
		c-0.656,0-1.216-0.028-1.68-0.084c-0.464-0.056-0.844-0.195-1.14-0.42c-0.296-0.224-0.512-0.556-0.648-0.996
		c-0.136-0.439-0.204-1.02-0.204-1.74V8.799h-1.44V5.895H131.612z"/>
	<path d="M149.023,14.895c-0.119,0.816-0.372,1.54-0.756,2.172c-0.384,0.632-0.939,1.136-1.668,1.512
		c-0.729,0.375-1.7,0.564-2.916,0.564c-1.264,0-2.264-0.172-3-0.516s-1.288-0.824-1.656-1.44c-0.368-0.616-0.604-1.336-0.707-2.16
		c-0.105-0.824-0.156-1.708-0.156-2.652c0-0.848,0.06-1.68,0.18-2.496c0.119-0.816,0.372-1.544,0.756-2.184
		c0.384-0.64,0.939-1.156,1.668-1.548s1.699-0.588,2.916-0.588c1.264,0,2.264,0.18,3,0.54c0.736,0.36,1.287,0.852,1.656,1.476
		c0.367,0.624,0.604,1.348,0.707,2.172c0.104,0.824,0.156,1.708,0.156,2.652C149.203,13.247,149.144,14.079,149.023,14.895z
		 M142.531,14.403c0.032,0.52,0.096,0.932,0.192,1.236c0.097,0.304,0.22,0.513,0.372,0.624c0.152,0.112,0.348,0.168,0.588,0.168
		s0.439-0.056,0.6-0.168c0.16-0.111,0.284-0.32,0.373-0.624c0.087-0.304,0.146-0.716,0.18-1.236c0.031-0.52,0.048-1.188,0.048-2.004
		s-0.017-1.488-0.048-2.016c-0.033-0.528-0.093-0.944-0.18-1.248c-0.089-0.304-0.213-0.512-0.373-0.624
		c-0.16-0.112-0.359-0.168-0.6-0.168s-0.436,0.056-0.588,0.168c-0.152,0.112-0.275,0.32-0.372,0.624
		c-0.097,0.304-0.16,0.72-0.192,1.248c-0.031,0.528-0.048,1.2-0.048,2.016S142.5,13.883,142.531,14.403z"/>
</g>
</svg>
